<?xml version="1.0" encoding="utf-8"?>
<!-- Generator: Adobe Illustrator 23.0.0, SVG Export Plug-In . SVG Version: 6.00 Build 0)  -->
<svg version="1.1" xmlns="http://www.w3.org/2000/svg" xmlns:xlink="http://www.w3.org/1999/xlink" x="0px" y="0px"
	 viewBox="0 0 500 500" style="enable-background:new 0 0 500 500;" xml:space="preserve">
<style type="text/css">
	.st0{fill:none;}
	.st1{fill:#FFFFFF;stroke:#000000;stroke-width:9;stroke-miterlimit:10;}
	.st2{fill:#FFFFFF;stroke:#000000;stroke-width:5;stroke-miterlimit:10;}
</style>
<g id="Calque_3">
</g>
<g id="Calque_2">
	<g>
		<g>
			<path class="st0" d="M492.7,497.4c-166.7,0-333.3,0-500,0c0-166.7,0-333.3,0-500c166.7,0,333.3,0,500,0
				C492.7,164.1,492.7,330.8,492.7,497.4z M257.6,470.2c51.6-0.6,102.2-20.3,144.5-60.3c44.4-41.9,68.2-94,69.3-154.8
				c1.4-84.1-34.6-149.4-105.1-195.2C332,37.7,293.8,27.6,253.3,27.3c-59.6-0.5-111.4,20.3-154.4,61.3
				C54,131.4,31.1,184.7,30.6,246.5C29.8,371,128.2,470.2,257.6,470.2z"/>
			<path class="st0" d="M166.9,77.9c-2,4.4-4.1,8.7-7.7,11.3c0.2,1.9,0.8,3.6,0.4,4.9c-1.3,4-4,6.7-8,8.2c-0.9,0.3-1.9,0.6-2.1,0.6
				c-1.3,4.8-1.8,9.2-5.4,12.3c-0.6,0.5-1.8,0.7-2.5,0.4c-0.5-0.2-1-1.4-0.9-2c0.8-3.7,1.8-7.3,2.8-11.4c-0.6-0.1-2.1-0.1-3.4-0.6
				c-1.8-0.7-3.9-0.9-4.8-3.5c-0.7-2.1-2.3-3.6-4.9-2.2c-0.2-6.9,4-11,9-14.4c4.1-2.8,8.5-5.2,12.6-7.9c1.6-1.1,2.6-0.7,3.8,0.6
				c0.5,0.6,1.8,1.5,2,1.3c2.4-1.9,5-1.8,7.7-1.2c0.5,0.1,1.6-0.7,1.6-1.1c0-1-0.3-2.1-0.8-3c-0.4-0.8-1.2-1.5-1.5-1.8
				c3.7-2.1,7.4-3.8,10.6-6.2c2.3-1.8,3.9-4.5,5.8-6.8c-0.2-0.2-0.4-0.5-0.6-0.7c2.4-0.2,4.9-0.3,7.3-0.5c0.5,1.4,1.2,3.2,1.7,5.1
				c0.2,0.6-0.2,1.8-0.7,2.1c-3.8,2.4-6.4,6.9-12,6.4c-1.7-0.1-3.5,1.5-5.6,2.5c2.3,2,3.8,1.8,5.5,0.6c2.2-1.4,4.6-0.5,4.3,1.8
				c-0.5,3.4,2.5,3.7,4,5.1c1,0.9,2.8,0.9,4.3,1.2c0.4,0.1,1.1-0.2,1.2-0.5c0.2-0.5,0.2-1.2-0.1-1.7c-0.4-0.7-1-1.3-1.5-2
				c0.2-0.2,0.4-0.4,0.5-0.6c1.4,1,2.8,1.9,4.3,2.9c1-1.2,2-2.4,2.9-3.5c-0.1-1.1-0.1-2-0.3-2.9c-0.1-0.7-0.3-1.5-0.8-1.9
				c-2.1-1.9-1.8-3.1,1-4.2c0.9,1.5,1.6,3.9,2.9,4.3c1.1,0.3,2.9-1.6,4.5-2.4c1.7-0.9,3.4-1.7,5.1-2.6c-3.1-2.7-5.5-4.9-8-7.2
				c3.9-1.7,3.8-3.9-0.8-8.4c9.1-1.7,18-3.3,26.8-4.9c0.2,0.2,0.3,0.5,0.5,0.7c-1,1.7-2,3.4-3.1,5.4c2.1,0.4,4.2,0.9,6.2,1.3
				c0,0.3,0.1,0.6,0.1,0.9c-3.2-1-6.2-1.4-7.2,2.6c2.5,2.1,4.8,1.1,7-1.3c-0.2,1.6-0.3,2.7-0.4,3.8c-2.6,0-8.1,3.1-7.5,4.1
				c1.3,1.8-2.3,5.2,2,5.6c-0.3,1.3-0.7,2.5-1.1,4.1c1.2-0.2,2-0.3,2.3-0.4c-0.1,1.2-0.6,2.6-0.2,3.6c0.9,2.3,2,4.6,3.4,6.7
				c1,1.5,2.4,2.8,4.6,1.8c0.4-0.2,1.2,0.7,1.9,0.9c1.7,0.7,3.4,1.5,5.2,2c1.5,0.4,2.3-0.4,2.6-2.1c0.4-2.4,1.3-4.7,2.2-7.4
				c2.7,0.3,3.6-2.3,3.8-4.8c0.3-3.3,3.1-3.8,5-5c0.5-0.3,2.2,0.8,3.8,0.1c3.6-1.6,5.5-3.1,7.4-6.6c2.2,0.3,4.3,2.3,6.6-0.5
				c1.3-1.6,3.8-2.1,5.8-3.1c0.7-0.4,1.4-0.8,1.9-1.9c-0.8,0.1-1.5,0.2-2.3,0.3c-0.1-0.2-0.2-0.4-0.2-0.6c0.9-0.4,1.8-0.9,3.1-1.5
				c-1.4-1.2-2.7-2.2-4.1-3.4c0.5-1.4,1.1-3,1.7-4.6c14.7,1.9,28.7,5.4,42.4,10.3c6.1,2.2,11.8,5.1,17.6,8.1c3.3,1.7,5.1,4,6.7,6.8
				c0.7,1.2,1,2.8,2.1,4c-0.6,1.7-1.2,3.4-1.8,5.1c-1,2.9,0.8,6.6,3.4,8.4c1.8,1.2,3,3.3,4.6,4.7c1.3,1.2,2.8,2.5,4.4,2.9
				c2.5,0.6,2.6-1.4,2.3-3.3c0.2-0.2,0.5-0.4,0.7-0.5c3.6,3.5,7.1,7,11.1,10.9c-4.1-0.3-5.5-3.5-7.6-5.9c-3.5,6.9,3.8,9.5,5.1,14.7
				c-2.4-0.3-4.8-0.5-5.2,2.7c0,0.2-1.5,0.3-2.6,0.4c0.6,0.8,1.1,1.5,1.6,2.2c-2.6,4.1-2.6,4.1-5.4,1c0.4-0.9,0.7-1.8,1-2.6
				c-5.6-4.5-11.1-9-16.9-13.6c0.7-4.1,0.5-4.3-3.9-5.8c-0.7-0.2-1-1.6-1.7-2.9c0,0-0.7-0.1-1.4-0.1c-0.7,0-1.4,0-1.5,0
				c-0.7,1.3-1.4,2.2-1.6,3.1c-0.2,0.7,0.1,1.9,0.5,2.2c1.5,1,2,2.1,0.8,3.9c1.6,0.6,3,1.1,4.4,1.8c0.4,0.2,0.6,0.8,1,1.2
				c0.6,0.6,1.2,1.6,1.9,1.8c2.8,0.5,3.9,2.4,4.7,4.5c-1.3,0.4-2.5,0.8-2.8,0.9c0.2,1.7,0.2,2.7,0.5,3.5c0.3,0.8,0.8,1.9,1.5,2.1
				c1.1,0.3,2.5,0.1,3.4,0.1c-1.3,1.5-2.5,3-3.7,4.4c0.3,0.3,0.5,0.7,0.8,1c1.6-0.7,3.2-1.5,4.9-1.9c1.6-0.4,3.3-0.2,4.9-0.3
				c1-0.1,2-0.3,2.9-0.3c0.7,0,1.8,0.2,1.9,0.5c0.2,0.7,0,1.6-0.3,2.4c-0.3,0.6-0.9,1.1-1.6,1.8c-1.2-0.5-2.5-1.1-4.6-2
				c0.8,2,1.3,3.4,1.9,4.9c-5.5-0.5-5.5-0.5-7.4,0.8c1.6,0.9,3.1,1.6,4.5,2.4c1.5,0.9,3.4,1.7,4.3,3c1.9,2.6,3.6,5.5,4.9,8.5
				c0.5,1.2,0.4,3.2-0.3,4.4c-0.3,0.6-2.5,0.5-3.8,0.2c-3.8-0.6-7.5-1.6-11.3-2.1c-1.3-0.2-2.6,0.7-4.4,1.2c0.8,2.6,1.7,5.2,2.6,7.8
				c0.2,0.7,0.6,1.5,0.6,2.3c0,2.1-0.3,4.3,0,6.3c0.3,2,1.2,3.9,1.9,6.1c2.2,0.6,4.8,1.1,7.3,2c1.7,0.6,3,1.5,1.5,3.8
				c-0.7,1.2-0.1,3.2-0.1,5c-1.6,0.1-2.9,0.2-4.3,0.4c0.2,2,0.4,3.8,0.6,5.9c-4.1-0.5-4.7,1.6-4.5,4.8c0.2,2.6,0,5.3,0,8.1
				c-1.3,0.1-2.3,0.2-3.4,0.3c-0.9,2.5-1.7,4.9-5,5.8c-1.3,0.3-2.3,2.5-3,4c-1.2,2.3-2,4.8-3.1,7.2c-0.6,1.3-1,2.8-3.1,2.8
				c-0.5,0-1.5,1.7-1.5,2.7c-0.1,2.7,0.1,5.2-3,6.7c-1.7,0.9-1.1,3.8,0.8,4.5c1.5,0.5,3,1,3.8,1.2c-0.2,4.1-0.4,7.7-0.5,11.3
				c-0.1,1.1,0.3,2.5-0.2,3.3c-5.2,8.2-0.2,13.9,4.7,19.7c0.6,0.7,1.2,1.4,2,1.9c1.6,1.2,2.4,2.6,2.3,4.8c-0.1,3.3,2.6,4.1,5.1,5.2
				c1,0.4,2.2,1.1,2.8,2c1.3,1.9,2.2,4.1,3.5,6c2,3.1,5,3.3,7.6,0.6c0.5-0.5,1.6-0.8,2.4-0.7c4.2,0.3,8.4,0.9,12.7,1.1
				c1.1,0.1,2.3-1,3.5-1.5c1.3-0.5,2.6-1.1,3.9-1.5c1.8-0.5,3.7-0.7,5.4-1.3c1.7-0.6,3.2-1.2,3.6,1.3c1,6.2,0.6,4.9,7,6.1
				c1.5,0.3,3,0,5.1,0c-2.2,6.9-4.2,13.4-6.4,20.5c1.9,2.8,2.9,6.9,3,11.3c0.1,1.7,0.6,3.4,0.6,5.1c0.1,7.9-2,15.3-6.6,21.8
				c-2,2.9-4.5,5.6-6,8.7c-1.5,3.1-2.5,6.7-2.7,10.1c-0.2,5.5-2,10.1-4.3,14.9c-3.3,6.8-5.8,14-8.8,20.9c-0.8,1.7-2.4,3-3.4,4.7
				c-0.5,0.9-0.4,2.1-0.6,3.1c1,0.1,2,0.3,3,0.3c1.8-0.1,3.7-0.4,5.5-0.7c0.1,0.3,0.3,0.6,0.4,0.9c-7,4.5-13.8,9.4-21.1,13.4
				c-8.7,4.9-17.5,9.5-26.6,13.4c-13,5.6-26.7,8.9-40.6,11.4c-14.9,2.7-30,3.7-45,2.8c-11-0.6-21.9-2.7-32.7-4.3
				c-0.9-0.1-1.9-1.7-2.3-2.7c-0.7-1.8-0.9-3.7-1.3-5.9c-1.6-1-3.5-2.1-5.9-3.6c1.2-0.8,2-1.3,2.3-1.5c0-2.3,0.1-4.5-0.1-6.7
				c0-0.5-0.6-1.2-1.1-1.5c-0.8-0.5-1.7-0.8-2.2-1.9c1.3,0.1,2.5,0.3,4.3,0.4c-0.7-2.2-1.2-3.9-1.9-6c2.4-0.2,4.9-0.5,7.7-0.7
				c0.6-1.6,2-3.7,1.8-5.6c-0.3-1.9-2.3-3.5-3.7-5.5c1.8,0.2,3.7,0.1,5.4,0.7c2.8,0.9,3.6-0.4,4.1-2.7c0.6-2.5,1.5-5,2.3-7.7
				c1.9,1.6,2.9,1.3,3.9-0.8c0.8-1.7,2.4-3.1,3.1-4.9c0.6-1.4,0.5-3.1,0.4-4.6c-0.1-1.3-1.2-3.1-0.7-3.9c1.3-2.1,3-4.6,5.1-5.5
				c4.1-1.7,8.5-2.4,13.6-3.7c1-1.4,2.8-3.5,4.2-5.8c1.1-1.9,1.9-4.1,2.6-6.2c0.9-2.7,1.6-5.4,2.3-8.1c0.2-0.8,0.4-1.7,0.2-2.4
				c-2-6.8,2.3-10.4,6.9-13.9c5.5-4.1,8.1-11.4,6-16.9c-0.9-2.2-2.2-3.6-5-3.6c-3,0.1-6.1,0.2-7-4.1c-0.2-0.9-2.6-1.6-4.1-1.9
				c-3.2-0.6-6.4-0.9-9.6-1.2c-1-0.1-2.1,0.6-3.2,0.8c-0.9,0.2-1.8,0.4-3,0.3c2.6-2.2,1.2-3.6-0.6-4.6c-2.1-1-4.4-1.5-6.5-2.4
				c-2.5-1.1-5.4-0.9-7.6-3c-1.1-1-3.2-1.1-4.9-1.6c-1.1-2,2-5.7-2.4-6.6c-0.3-1.8-0.6-3.6-1-5.3c-0.2-0.7-0.6-1.7-1.2-2
				c-3.3-1.9-6.7-3.7-10.2-5.4c-0.9-0.5-2.2-0.6-3.2-0.4c-5.9,1.1-9.4-0.6-11.9-5.8c-0.4-0.8-1.6-1.1-2.4-1.7
				c-2-1.6-3.9-3.2-5.3-5.2c-1.5,0-2.9,0-4.4,0c0.3-0.8,0.6-1.7,0.9-2.7c-1.7-3.9-5.2,0.9-7.4-1.5c-0.9,1.4-1.6,2.6-2.4,3.8
				c0-0.3,0-0.6,0.1-0.9c-2.7-0.7-5.4-1.3-8.1-2c-0.7-0.2-1.4-0.2-1.9-0.6c-1.9-1.5-3.8-3.1-5.5-4.6c-3.7,2.9-7,5.4-4.7,10.3
				c-3.3-4-1.8-7.7,0.8-11.3c-0.2-0.2-0.4-0.5-0.6-0.7c-4.3,2.3-8.6,4.7-13.4,7.2c1.4,3.5-2.9,5-4.3,8.2c-0.2-3.4-2.3-3.6-4.8-3.7
				c-3-0.2-6.4-0.3-9-1.6c-4.7-2.5-4.1-7.2-3.6-11.7c0.2-2.1,0.6-4.3,0.3-6.4c-0.2-1.3-1.3-3.1-2.4-3.5c-3.3-1.3-6.8-1.3-10.4,0.2
				c-0.2-0.4-1-1-0.9-1.5c0.8-4.5,1.7-9,2.8-13.4c0.4-1.4,1.5-2.7,2.1-4.1c0.2-0.5,0.1-1.5-0.3-1.9c-1.4-1.4-7.3,0.1-8.1,1.9
				c-0.7,1.6-1.4,3.2-1.6,4.9c-0.4,2.9-1.7,4.6-4.6,5.2c-1.3,0.2-2.5,0.8-3.4,1.1c-5.2-4.7-5.9-11-6.2-17.3
				c-0.1-3.2,1.3-6.4,1.9-9.7c0.3-1.9,0-4,0.5-5.8c0.6-2,1.8-3.9,3.1-5.7c0.7-1,2-1.5,2.9-2.4c2.8-2.8,4.6-2.8,8-0.6
				c1,0.7,2.8,0.1,3.5,0.1c1.2-1.9,2-4.6,2.9-4.6c2.5,0,5.7-1.9,7.8,1.5c0.3,0.5,2.3-0.1,4.2-0.3c2.6,2,0.9,6,2.2,9.2
				c1.1,2.8,2.2,5.5,3.4,8.2c0.1,0.2,1.9,0.1,2.1-0.4c0.6-1,1.1-2.3,1.1-3.4c-0.2-3.3-0.9-6.6-1-9.9c-0.1-2.4,0-4.9,0.4-7.3
				c1.3-7.5,7.5-10.7,13-14.6c2-1.4,3.7-3.2,5.3-5.1c0.4-0.5-0.6-2-0.7-3c-0.1-2.1,0-4.3,0-6.5c0.3,0,0.7-0.1,1-0.1
				c0.4,0.7,0.8,1.5,1.4,2.6c2.3-3.4,4.6-6.7,6.6-10.1c0.8-1.3,1.6-1.7,3-1.9c2.4-0.4,4.8-1.2,6.9-1.8c0.7-2.3,0.8-4.9,2.1-6.4
				c1.6-1.8,4.2-2.8,6.5-4c2.2-1.2,4.7-2.1,6.8-3.4c2.2-1.4,4-0.9,6.1,0c-3.2,0.5-6.5,0.5-7.2,5.3c1.1,0.1,2.5,0.6,3.2,0.1
				c5.4-4.1,14.1-3.4,17.2-10.8c-0.2-0.3-0.4-0.7-0.6-1c-1.2,0.6-3,0.9-3.5,1.8c-1.4,2.6-3.5,2.6-5.5,1.9c-2.1-0.8-4.3-2.1-4.1-5
				c0-0.4-0.2-0.8-0.3-1.3c1.6-1.4,4.3-2.4,3-6c-2.2,0.3-4.6,0.4-6.7,1.1c-2.1,0.6-3.9,1.9-6.4,3.1c0.4-1,0.4-1.4,0.7-1.6
				c3.6-2.4,7.2-5.2,11.6-5.6c3.9-0.4,7.8,0.1,11.7-0.2c1.8-0.1,3.7-0.8,5.3-1.7c2.2-1.2,4-2.7,6.8-2.7c4.1-0.1,4.6-3.5,5-6.8
				c-1.9-0.8-3.9-1.7-5.8-2.5c0.7-0.3,1.7-0.8,2.9-1.4c-3.3-1.8-6.4-3.5-9.4-5.2c0.4-0.3,0.8-0.6,1.2-0.9c-0.1-1.6,0-3.2-0.4-4.7
				c-0.8-2.9-1.9-5.7-2.9-8.7c-3,2.4-6.2,5-9.4,7.4c-1.3-1.4-2.1-2.4-3.1-3.4c0.9-1.8,2-4,3.4-6.7c-4.3,0.9-4-3.4-6-4.6
				C173,77.2,169.9,77.5,166.9,77.9c-3.2-1-4.2-0.6-5.4,2.5C164.3,81.6,165.4,79.4,166.9,77.9z M132.9,230.7
				c-1.3-2.2-2.4-4.8-5.4-4.4c-5.2,0.8-7.4-3.6-10.9-5.7c-0.8-0.5-1.7-1.2-2.5-1.1c-2.6,0-5.3,0.3-7.9,0.6c-2.2,0.2-3.2,2.4-2,4.3
				c1.3,1.9,3.6,2.4,5.5,0.9c2-1.6,3.4-1.1,5.3,0.4c2.5,2.1,5.3,3.9,8.1,5.8c0.2,0.2,0.6,0.2,0.9,0.2
				C126.8,231.3,129.7,231,132.9,230.7z M206.3,132.5c4.2-1.7,1.9-5.9,4.2-8c-2.9-1.6-5.4-3-8.1-4.5c0.7-0.6,1.6-1.2,2-2
				c0.4-0.7,0.2-1.7,0.3-2.6c-0.9,0.2-2.2,0-2.7,0.5c-2.6,2.8-5.2,5.7-7.6,8.7c-0.8,1-1.1,2.3-1.7,3.7
				C198,129.2,203.4,126.9,206.3,132.5z M305.2,71.1c-2.3-2.2-4.1-4-6.1-5.7c-0.3-0.2-1-0.1-1.5,0c-2.4,0.5-4.9,1.2-7.3,1.7
				c-0.5,0.1-1.3-0.3-1.8-0.6c-1.6-1.3-5.1-0.8-6.9,1.2c1.5,0.3,2.8,0.6,4.3,0.9c-1,0.5-1.9,1-2.8,1.4c0,0.2,0,0.5,0.1,0.7
				c0.9,0.1,1.8,0.2,3,0.4c0.2,2.8,2.2,2.8,4.6,2.8c1.1,0,2.3,0.6,3.4,0.8c1.4,0.2,3.8,0.5,4,0C299.3,71.6,301.9,71.4,305.2,71.1z
				 M136.4,233.3c0,1.4-0.3,2.7,0.1,3.7c0.5,1.3,1.2,2.9,2.3,3.4c0.9,0.5,2.5-0.3,3.8-0.6c0.6-0.1,1.1-0.7,1.6-0.7
				c4.6-0.3,9.2-0.4,13.8-0.7c1.1-0.1,2.3-0.2,3.6-0.4c-0.7-1.5-1.2-2.6-1.7-3.5c-2.2,0-4.3,0-6.3,0c-0.7,0-1.3,0.2-2,0.2
				c-1.5,0-3.1,0.2-4.3-0.3C143.8,232.9,140.4,231.8,136.4,233.3z M327.9,106.4c1.2,3.1,3.7,5.5,2.9,8.8c0,0.2,1.6,1.2,2.4,1.1
				c2.3-0.3,4.6-1,6.9-1.5c-0.5-2.6-1.1-5.4-1.7-8.1c-0.6-2.6-6.3-4.9-8.3-3.3c0.2,0.8,0.3,1.5,0.5,2.4
				C329.8,105.9,329,106.1,327.9,106.4z M120.6,236.6c-0.1,0.3-0.3,0.7-0.4,1c1.3,0.8,2.5,1.7,3.8,2.5c0.6,0.4,1.2,0.9,1.8,1.4
				c0.4-0.7,1.2-1.5,1.2-2.2c0-0.7-0.8-1.7-1.4-1.9C124,236.9,122.3,236.8,120.6,236.6z M186.4,121.6c-2.4-0.8-4.6-1.5-6.8-2.2
				c-0.1,0.3-0.2,0.6-0.3,0.9C183.2,125.3,183.4,125.3,186.4,121.6z M186.5,58.7c-3.9,1-4.6,1.5-5.1,3.9
				C185.9,62.8,187,62,186.5,58.7z"/>
			<path class="st0" d="M122.9,275.3c0.7,2.4,1,4,1.7,5.4c2.4,4.4,1.9,9.3-0.9,13.6c-1.5,2.3-2.2,5.2-3.3,7.8c-0.4,0.9-1,1.7-2,3.4
				c0.2,1.4,0.5,3.6,0.9,6.1c0.9,0.2,1.9,0.4,2.8,0.5c-0.6,1.8-1.3,3.4-1.8,5.1c-1.1,3.9,1,6.8,3,9.6c0.9,1.3,2.6,2,3.6,3.2
				c1.6,1.8,3.1,3.7,4.4,5.8c3.2,5.4,6.1,11,9.4,16.4c1.2,1.9,3.1,2.7,5.7,2.3c3.7-0.5,5.3,2.9,7.6,4.9c0.6,0.5,1,1.5,1.6,1.7
				c4.3,1.2,4.9,5,5.9,8.5c1.4,4.4,3,8.8,4.1,13.3c1,3.9,1.9,7.9,2,11.9c0.1,3.7,2.4,6.1,3.7,9.1c0.8,2,1.4,4.1,2,6.2
				c0.4,1.1,0.6,2.3,0.9,3.5c0.2,0.6,0.8,1.1,0.8,1.6c-0.2,5.2,3.3,8.7,5.9,12.5c0.4,0.6,0.8,1.2,1,1.9c0.3,1.8,1.3,2.9,3.2,3.1
				c0.5,0.1,0.9,0.6,1.3,0.9c-1.8,2.3,1.2,3.5,1.3,5.4c0.1,0.9,1.3,2,2.3,2.5c1.9,1.1,4.3,1.6,2.3,5.3
				c-49.2-16.4-88.7-45.8-116.1-90.1c-27.5-44.4-35.7-92.9-27.3-144.4c1.1,4.2,2.2,8.3,3.3,12.4c0.3,0,0.5,0,0.8,0.1
				c0.1-1.5,0.3-3,0.2-4.5c-0.7-6.5-1.6-13-2.4-19.5c0.3-0.1,0.7-0.1,1-0.2c0.9,3,1.8,6,2.6,9.1c1.2,4.6,2.3,9.3,3.4,13.9
				c0.7,2.9,1.5,5.4,0.7,8.7c-0.5,2,1.8,5.2,3.7,7.2c2.9,3,6.4,5.6,9.8,8.1c1.9,1.4,4.1,3.6,6.4,0.2c0.2-0.3,2-0.2,2.5,0.3
				c1.6,1.5,2.9,3.4,4.5,5c0.6,0.6,1.5,1,2.3,1.4c1.3,0.8,2.6,1.4,3.7,2.4c1.4,1.3,2.6,2.8,5.4,1.4c1.5,3.4,3,7,4.6,10.5
				c0.3,0.7,1.3,1.1,2.1,1.5c0.5,0.3,1.3,0.3,1.7,0.8c3.1,4.1,8.2,4.8,11.4,7c0.9-1.6,1.5-3.9,2.7-4.3
				C120.4,273.4,122.2,275,122.9,275.3z"/>
			<path class="st0" d="M357,174c4-4.6,9.5-5.7,13.8-8.3c-0.5-2.7-2-5.8-1.2-8c0.7-1.9,4-2.9,6.3-4.4c-0.4-1.6-0.8-3.6-1.3-6.1
				c2.7,0.9,4.9,1.5,6.1,1.9c2.2-1.8,3.7-3.2,5.4-4.6c2.1,2.4,3.7,4.6,5.8,6.5c3.8,3.5,8,6.6,11.8,10c1.4,1.3,2.4,3.2,4.1,5.5
				c-2.8,0.6-5,1-7.2,1.5c0.4,2.2,4.1,4.6,6.9,4.4c0.9-3.2,1.6-6.3,2.6-9.3c1-2.7,0-4.2-2.2-5.8c-4.4-3.2-9.1-6.2-12.3-10.9
				c-2.6-3.8-2.8-3.7-2.7-5.4c2.3,1.9,4.4,3.5,6.5,5.2c3,2.4,6.3,4.5,8.9,7.3c2,2.1,2.9,5.2,4.3,7.8c0.8,1.4,1.6,2.7,2.7,4.5
				c-1,1.8,0.2,3.2,2.4,4.4c0.7,0.3,1.2,1.2,1.7,1.8c0.9,0.9,1.7,1.9,2.9,3.2c1-2.9,1.8-5,2.4-7.2c0.1-0.5-0.9-1.8-1-1.8
				c-2.9,0.9-3-2-4.3-3c0.6-1,1.3-1.9,2-3c2.6,0.7,7,8.1,10.8,19c0.4-1,0.7-1.8,0.9-2.3c1,0.5,2,1.1,3.6,1.9
				c-0.3-1.6-0.5-2.4-0.7-3.4c0.4,0.1,0.6,0.2,0.8,0.3c1.1,0.8,2.2,1.7,3.4,2.6c0.2,0.2,0.6,0.3,0.9,0.2c2.5-0.6,2.5-0.7,3,2.4
				c0.7,4.2,1.3,8.4,1.8,12.6c0.2,1.9,0.4,4.2-2.8,2.3c-0.3-0.2-0.9-0.2-1.2-0.1c-3.8,2-6.5-0.5-9.5-2.1c-3.4-1.8-7-3.5-10.5-5.2
				c-0.3,0.2-0.5,0.4-0.8,0.6c0.4,2.7,0.8,5.4,1.3,8.4c-1-0.1-2.2,0.1-2.5-0.3c-1.6-2.6-4.3-2.8-6.7-3.4c-0.4-0.1-0.9-0.3-1-0.6
				c-1.4-3.9-5.2-4.6-8.4-5.7c-3.3-1.2-4.3-3.7-5-6.6c-0.5-2-0.9-4.1-1.4-6.6c0.1-0.2,0.7-0.9,1.4-1.8c-4-3.4-8.2-1.3-12.4-0.9
				c-0.7,0.1-1.5,0.3-2,0c-2.7-1.5-5.2-1.3-7.8,0.4c-0.5,0.3-1.4,0.3-2.1,0.3c-1.9,0-3.5,0.3-4.3,2.4c-0.1,0.4-0.7,1-1.1,1
				C365.4,175.5,361.4,176.7,357,174z"/>
			<path class="st0" d="M363.7,76.3c2.5,3,4.5,5.7,6.8,8c1.8,1.8,4.1,3.3,6.2,4.8c0.6,0.4,1.7,0.2,2.5,0.4c1,0.2,2.1,0.4,4,0.8
				c-1.8,1.2-2.8,1.9-3.9,2.6c1,1.6,0.8,4.6,4.3,2.9c0.6-0.3,2.2,1.6,3.4,2.5c-0.2,0.2-0.3,0.5-0.5,0.7c-1-0.6-1.9-1.1-2.9-1.7
				c-0.2,0.1-0.4,0.3-0.6,0.4c1.2,2.6,2.5,5.3,3.8,8.2c-1.2,1.1-4.1,0.5-4.8,3.1c0,0-0.2,0-0.3,0.1c-0.7,0.1-1.9,0.2-1.9,0.1
				c-0.6-2.9-5.7-0.1-5.4-4.2c2.1-0.6,4.1-2.9,3.9-4.7c0-0.5-0.2-1.3-0.5-1.5c-3-1.2-3.9-3.3-3.8-6.5c0-1.2-1.4-2.7-2.6-3.5
				c-4-2.7-7.8-5.5-8.2-10.9C363.2,77.7,363.4,77.4,363.7,76.3z"/>
			<path class="st0" d="M448.6,209.1c4.4,8.4,7.1,17.4,7.3,27.7C453.3,227.1,451,218.1,448.6,209.1z"/>
		</g>
		<g>
			<path class="st1" d="M257.6,470.2c-129.3,0-227.8-99.3-226.9-223.8C31.1,184.7,54,131.4,98.9,88.6c43-41,94.8-61.8,154.4-61.3
				c40.5,0.4,78.7,10.4,112.9,32.7c70.5,45.8,106.5,111.1,105.1,195.2c-1,60.8-24.9,112.9-69.3,154.8
				C359.8,450,309.1,469.7,257.6,470.2z M166.9,77.9c3-0.3,6.1-0.7,9.3-1.1c2,1.2,1.6,5.5,6,4.6c-1.3,2.6-2.5,4.8-3.4,6.7
				c1,1.1,1.8,2,3.1,3.4c3.1-2.5,6.4-5.1,9.4-7.4c1,3,2.1,5.8,2.9,8.7c0.4,1.5,0.3,3.1,0.4,4.7c-0.4,0.3-0.8,0.6-1.2,0.9
				c3.1,1.7,6.1,3.4,9.4,5.2c-1.2,0.6-2.2,1-2.9,1.4c1.9,0.8,3.9,1.7,5.8,2.5c-0.5,3.3-1,6.7-5,6.8c-2.8,0.1-4.6,1.5-6.8,2.7
				c-1.6,0.9-3.5,1.6-5.3,1.7c-3.9,0.3-7.8-0.2-11.7,0.2c-4.5,0.4-8,3.2-11.6,5.6c-0.2,0.2-0.3,0.6-0.7,1.6c2.5-1.3,4.4-2.5,6.4-3.1
				c2.2-0.7,4.5-0.8,6.7-1.1c1.3,3.6-1.3,4.6-3,6c0.1,0.5,0.3,0.9,0.3,1.3c-0.1,2.9,2,4.3,4.1,5c2,0.7,4.1,0.7,5.5-1.9
				c0.5-1,2.3-1.2,3.5-1.8c0.2,0.3,0.4,0.7,0.6,1c-3.1,7.4-11.8,6.7-17.2,10.8c-0.6,0.5-2,0-3.2-0.1c0.7-4.7,4-4.8,7.2-5.3
				c-2.1-0.9-3.9-1.4-6.1,0c-2.1,1.4-4.6,2.2-6.8,3.4c-2.2,1.2-4.8,2.2-6.5,4c-1.3,1.5-1.4,4-2.1,6.4c-2.1,0.6-4.5,1.5-6.9,1.8
				c-1.5,0.2-2.2,0.6-3,1.9c-2,3.4-4.3,6.7-6.6,10.1c-0.6-1.1-1-1.8-1.4-2.6c-0.3,0-0.7,0.1-1,0.1c0,2.2-0.1,4.3,0,6.5
				c0.1,1,1.1,2.5,0.7,3c-1.5,1.9-3.3,3.7-5.3,5.1c-5.4,3.9-11.6,7.2-13,14.6c-0.4,2.4-0.5,4.9-0.4,7.3c0.2,3.3,0.8,6.6,1,9.9
				c0.1,1.1-0.4,2.4-1.1,3.4c-0.3,0.4-2,0.6-2.1,0.4c-1.2-2.7-2.3-5.5-3.4-8.2c-1.2-3.2,0.4-7.2-2.2-9.2c-1.9,0.2-3.9,0.8-4.2,0.3
				c-2.1-3.4-5.3-1.5-7.8-1.5c-0.9,0-1.8,2.7-2.9,4.6c-0.8,0-2.6,0.6-3.5-0.1c-3.4-2.2-5.2-2.3-8,0.6c-0.9,0.9-2.2,1.4-2.9,2.4
				c-1.2,1.8-2.4,3.7-3.1,5.7c-0.6,1.8-0.2,3.9-0.5,5.8c-0.6,3.3-2,6.5-1.9,9.7c0.3,6.2,1,12.5,6.2,17.3c0.9-0.3,2.2-0.8,3.4-1.1
				c2.9-0.6,4.3-2.3,4.6-5.2c0.2-1.7,0.9-3.3,1.6-4.9c0.8-1.9,6.7-3.3,8.1-1.9c0.4,0.4,0.5,1.3,0.3,1.9c-0.6,1.4-1.7,2.6-2.1,4.1
				c-1.1,4.4-2,8.9-2.8,13.4c-0.1,0.5,0.7,1.1,0.9,1.5c3.6-1.5,7.1-1.5,10.4-0.2c1.1,0.4,2.2,2.2,2.4,3.5c0.3,2.1-0.1,4.2-0.3,6.4
				c-0.4,4.4-1.1,9.2,3.6,11.7c2.6,1.4,6,1.5,9,1.6c2.6,0.1,4.7,0.3,4.8,3.7c1.4-3.2,5.7-4.7,4.3-8.2c4.8-2.6,9.1-4.9,13.4-7.2
				c0.2,0.2,0.4,0.5,0.6,0.7c-2.5,3.6-4.1,7.3-0.8,11.3c-2.3-5,0.9-7.5,4.7-10.3c1.8,1.5,3.6,3.1,5.5,4.6c0.5,0.4,1.3,0.5,1.9,0.6
				c2.7,0.7,5.4,1.3,8.1,2c0,0.3,0,0.6-0.1,0.9c0.7-1.2,1.5-2.3,2.4-3.8c2.2,2.4,5.7-2.4,7.4,1.5c-0.3,1-0.6,1.9-0.9,2.7
				c1.5,0,2.9,0,4.4,0c1.4,2,3.3,3.6,5.3,5.2c0.8,0.6,2,0.9,2.4,1.7c2.6,5.2,6,6.9,11.9,5.8c1-0.2,2.3,0,3.2,0.4
				c3.5,1.7,6.8,3.5,10.2,5.4c0.6,0.3,1,1.3,1.2,2c0.4,1.8,0.7,3.5,1,5.3c4.4,0.9,1.2,4.6,2.4,6.6c1.7,0.5,3.8,0.6,4.9,1.6
				c2.2,2.1,5.1,1.9,7.6,3c2.1,0.9,4.4,1.4,6.5,2.4c1.9,0.9,3.3,2.3,0.6,4.6c1.2,0.1,2.1-0.1,3-0.3c1.1-0.3,2.2-0.9,3.2-0.8
				c3.2,0.2,6.4,0.6,9.6,1.2c1.5,0.3,3.9,1,4.1,1.9c0.9,4.3,4.1,4.2,7,4.1c2.8,0,4.1,1.4,5,3.6c2.1,5.5-0.5,12.8-6,16.9
				c-4.6,3.5-8.9,7.1-6.9,13.9c0.2,0.7,0,1.6-0.2,2.4c-0.7,2.7-1.4,5.5-2.3,8.1c-0.7,2.1-1.5,4.3-2.6,6.2c-1.4,2.4-3.2,4.5-4.2,5.8
				c-5.1,1.3-9.6,2-13.6,3.7c-2.1,0.9-3.8,3.4-5.1,5.5c-0.5,0.8,0.6,2.6,0.7,3.9c0.1,1.5,0.2,3.2-0.4,4.6c-0.7,1.8-2.3,3.1-3.1,4.9
				c-0.9,2-2,2.3-3.9,0.8c-0.8,2.7-1.7,5.2-2.3,7.7c-0.6,2.3-1.3,3.7-4.1,2.7c-1.7-0.6-3.6-0.5-5.4-0.7c1.4,2,3.4,3.6,3.7,5.5
				c0.3,1.9-1.2,4.1-1.8,5.6c-2.8,0.3-5.3,0.5-7.7,0.7c0.7,2.1,1.2,3.9,1.9,6c-1.8-0.2-3-0.3-4.3-0.4c0.6,1,1.5,1.3,2.2,1.9
				c0.5,0.3,1.1,1,1.1,1.5c0.1,2.2,0.1,4.4,0.1,6.7c-0.4,0.2-1.2,0.8-2.3,1.5c2.4,1.5,4.4,2.7,5.9,3.6c0.5,2.1,0.7,4.1,1.3,5.9
				c0.4,1.1,1.4,2.6,2.3,2.7c10.9,1.6,21.8,3.7,32.7,4.3c15.1,0.8,30.1-0.1,45-2.8c13.9-2.5,27.6-5.9,40.6-11.4
				c9.1-3.9,18-8.5,26.6-13.4c7.3-4.1,14.1-8.9,21.1-13.4c-0.1-0.3-0.3-0.6-0.4-0.9c-1.8,0.2-3.7,0.5-5.5,0.7c-1,0.1-2-0.2-3-0.3
				c0.2-1,0.1-2.3,0.6-3.1c1-1.7,2.7-3,3.4-4.7c3-6.9,5.5-14.1,8.8-20.9c2.3-4.8,4.1-9.5,4.3-14.9c0.1-3.4,1.2-7,2.7-10.1
				c1.5-3.1,4-5.8,6-8.7c4.6-6.6,6.6-13.9,6.6-21.8c0-1.7-0.5-3.4-0.6-5.1c-0.2-4.4-1.2-8.5-3-11.3c2.2-7.1,4.3-13.6,6.4-20.5
				c-2,0-3.6,0.2-5.1,0c-6.4-1.2-5.9,0.1-7-6.1c-0.4-2.5-1.9-2-3.6-1.3c-1.7,0.6-3.6,0.8-5.4,1.3c-1.3,0.4-2.6,0.9-3.9,1.5
				c-1.2,0.5-2.4,1.6-3.5,1.5c-4.2-0.2-8.4-0.8-12.7-1.1c-0.8-0.1-1.9,0.2-2.4,0.7c-2.6,2.6-5.5,2.5-7.6-0.6c-1.3-2-2.2-4.1-3.5-6
				c-0.6-0.9-1.7-1.6-2.8-2c-2.5-1-5.3-1.9-5.1-5.2c0.1-2.2-0.7-3.6-2.3-4.8c-0.7-0.5-1.4-1.2-2-1.9c-4.9-5.8-9.9-11.5-4.7-19.7
				c0.5-0.8,0.2-2.2,0.2-3.3c0.2-3.6,0.3-7.2,0.5-11.3c-0.8-0.3-2.3-0.7-3.8-1.2c-1.9-0.7-2.6-3.6-0.8-4.5c3.1-1.5,2.9-4,3-6.7
				c0-0.9,1-2.7,1.5-2.7c2.1,0.1,2.5-1.4,3.1-2.8c1.1-2.4,1.9-4.9,3.1-7.2c0.8-1.5,1.7-3.7,3-4c3.2-0.8,4-3.3,5-5.8
				c1.1-0.1,2.1-0.2,3.4-0.3c0-2.8,0.2-5.4,0-8.1c-0.3-3.2,0.3-5.3,4.5-4.8c-0.2-2.1-0.4-4-0.6-5.9c1.5-0.1,2.8-0.2,4.3-0.4
				c0-1.8-0.6-3.8,0.1-5c1.5-2.4,0.1-3.3-1.5-3.8c-2.5-0.9-5.2-1.4-7.3-2c-0.7-2.2-1.6-4.1-1.9-6.1c-0.3-2.1,0.1-4.2,0-6.3
				c0-0.8-0.4-1.5-0.6-2.3c-0.8-2.6-1.7-5.2-2.6-7.8c1.7-0.5,3.1-1.4,4.4-1.2c3.8,0.5,7.5,1.4,11.3,2.1c1.3,0.2,3.4,0.4,3.8-0.2
				c0.6-1.2,0.8-3.1,0.3-4.4c-1.3-3-3-5.9-4.9-8.5c-1-1.3-2.8-2.1-4.3-3c-1.4-0.8-2.8-1.5-4.5-2.4c1.8-1.3,1.8-1.3,7.4-0.8
				c-0.6-1.5-1.1-2.9-1.9-4.9c2.1,0.9,3.4,1.5,4.6,2c0.7-0.7,1.3-1.2,1.6-1.8c0.3-0.7,0.5-1.6,0.3-2.4c-0.1-0.3-1.2-0.5-1.9-0.5
				c-1,0-2,0.2-2.9,0.3c-1.6,0.1-3.3,0-4.9,0.3c-1.7,0.4-3.3,1.3-4.9,1.9c-0.3-0.3-0.5-0.7-0.8-1c1.2-1.5,2.4-2.9,3.7-4.4
				c-0.9,0-2.2,0.3-3.4-0.1c-0.7-0.2-1.2-1.3-1.5-2.1c-0.3-0.8-0.3-1.8-0.5-3.5c0.3-0.1,1.5-0.5,2.8-0.9c-0.8-2.1-1.9-4-4.7-4.5
				c-0.7-0.1-1.3-1.1-1.9-1.8c-0.4-0.4-0.6-1-1-1.2c-1.4-0.7-2.9-1.2-4.4-1.8c1.2-1.7,0.8-2.8-0.8-3.9c-0.5-0.3-0.7-1.5-0.5-2.2
				c0.2-1,0.9-1.8,1.6-3.1c0,0,0.8,0,1.5,0c0.7,0,1.4,0.1,1.4,0.1c0.7,1.3,1,2.6,1.7,2.9c4.4,1.5,4.6,1.7,3.9,5.8
				c5.8,4.6,11.2,9.1,16.9,13.6c-0.3,0.7-0.7,1.7-1,2.6c2.8,3.1,2.8,3.1,5.4-1c-0.5-0.7-1-1.3-1.6-2.2c1.1-0.2,2.5-0.2,2.6-0.4
				c0.4-3.2,2.8-3,5.2-2.7c-1.3-5.2-8.6-7.8-5.1-14.7c2.1,2.4,3.5,5.6,7.6,5.9c-4-3.9-7.5-7.4-11.1-10.9c-0.2,0.2-0.5,0.4-0.7,0.5
				c0.3,1.9,0.3,4-2.3,3.3c-1.6-0.4-3.1-1.7-4.4-2.9c-1.7-1.5-2.8-3.5-4.6-4.7c-2.6-1.7-4.4-5.5-3.4-8.4c0.6-1.7,1.2-3.4,1.8-5.1
				c-1.1-1.3-1.3-2.8-2.1-4c-1.7-2.8-3.4-5-6.7-6.8c-5.7-3-11.5-5.9-17.6-8.1c-13.7-4.9-27.7-8.5-42.4-10.3
				c-0.6,1.5-1.2,3.1-1.7,4.6c1.4,1.1,2.7,2.2,4.1,3.4c-1.3,0.6-2.2,1.1-3.1,1.5c0.1,0.2,0.2,0.4,0.2,0.6c0.8-0.1,1.5-0.2,2.3-0.3
				c-0.5,1-1.2,1.5-1.9,1.9c-2,1-4.5,1.6-5.8,3.1c-2.3,2.8-4.4,0.8-6.6,0.5c-1.9,3.5-3.9,5-7.4,6.6c-1.6,0.7-3.3-0.4-3.8-0.1
				c-1.9,1.2-4.7,1.7-5,5c-0.2,2.4-1.1,5.1-3.8,4.8c-0.8,2.7-1.8,5-2.2,7.4c-0.3,1.8-1,2.5-2.6,2.1c-1.8-0.5-3.5-1.3-5.2-2
				c-0.7-0.3-1.5-1.1-1.9-0.9c-2.2,0.9-3.6-0.4-4.6-1.8c-1.4-2.1-2.5-4.4-3.4-6.7c-0.4-1,0.1-2.4,0.2-3.6c-0.3,0-1.1,0.2-2.3,0.4
				c0.4-1.5,0.7-2.8,1.1-4.1c-4.3-0.4-0.7-3.8-2-5.6c-0.6-0.9,4.9-4.1,7.5-4.1c0.1-1.1,0.2-2.3,0.4-3.8c-2.2,2.4-4.5,3.5-7,1.3
				c1-4,4-3.6,7.2-2.6c0-0.3-0.1-0.6-0.1-0.9c-2.1-0.4-4.2-0.9-6.2-1.3c1.1-1.9,2.1-3.6,3.1-5.4c-0.2-0.2-0.3-0.5-0.5-0.7
				c-8.9,1.6-17.7,3.2-26.8,4.9c4.6,4.5,4.7,6.8,0.8,8.4c2.5,2.2,4.9,4.4,8,7.2c-1.7,0.9-3.5,1.7-5.1,2.6c-1.5,0.8-3.3,2.8-4.5,2.4
				c-1.3-0.4-1.9-2.8-2.9-4.3c-2.9,1.1-3.1,2.3-1,4.2c0.5,0.4,0.7,1.2,0.8,1.9c0.2,0.9,0.2,1.8,0.3,2.9c-0.9,1-1.9,2.3-2.9,3.5
				c-1.4-1-2.9-1.9-4.3-2.9c-0.2,0.2-0.4,0.4-0.5,0.6c0.5,0.7,1.2,1.2,1.5,2c0.2,0.5,0.3,1.2,0.1,1.7c-0.1,0.3-0.8,0.6-1.2,0.5
				c-1.5-0.3-3.3-0.3-4.3-1.2c-1.5-1.4-4.6-1.7-4-5.1c0.3-2.3-2.1-3.2-4.3-1.8c-1.7,1.1-3.2,1.4-5.5-0.6c2.1-1,3.9-2.7,5.6-2.5
				c5.5,0.4,8.2-4,12-6.4c0.5-0.3,0.9-1.5,0.7-2.1c-0.5-1.9-1.2-3.7-1.7-5.1c-2.4,0.2-4.9,0.3-7.3,0.5c0.2,0.2,0.4,0.5,0.6,0.7
				c-1.9,2.3-3.5,5-5.8,6.8c-3.1,2.4-6.8,4.1-10.6,6.2c0.3,0.4,1.1,1,1.5,1.8c0.5,0.9,0.8,2,0.8,3c0,0.4-1.1,1.2-1.6,1.1
				c-2.8-0.6-5.3-0.7-7.7,1.2c-0.2,0.2-1.5-0.7-2-1.3c-1.1-1.3-2.1-1.6-3.8-0.6c-4.1,2.7-8.5,5.2-12.6,7.9c-5,3.4-9.2,7.5-9,14.4
				c2.6-1.4,4.3,0.1,4.9,2.2c0.8,2.6,2.9,2.8,4.8,3.5c1.3,0.5,2.8,0.5,3.4,0.6c-1,4.1-2,7.7-2.8,11.4c-0.1,0.6,0.4,1.8,0.9,2
				c0.7,0.2,1.9,0.1,2.5-0.4c3.6-3.1,4.1-7.5,5.4-12.3c0.2-0.1,1.2-0.3,2.1-0.6c4-1.4,6.7-4.2,8-8.2c0.4-1.3-0.2-3-0.4-4.9
				C162.7,86.6,164.8,82.2,166.9,77.9L166.9,77.9z M122.9,275.3c-0.7-0.3-2.5-1.9-3.6-1.5c-1.2,0.4-1.7,2.7-2.7,4.3
				c-3.2-2.3-8.3-3-11.4-7c-0.3-0.4-1.1-0.5-1.7-0.8c-0.7-0.4-1.8-0.8-2.1-1.5c-1.7-3.5-3.2-7.1-4.6-10.5c-2.8,1.4-4,0-5.4-1.4
				c-1.1-1-2.5-1.7-3.7-2.4c-0.8-0.5-1.7-0.8-2.3-1.4c-1.6-1.6-2.9-3.4-4.5-5c-0.5-0.5-2.3-0.6-2.5-0.3c-2.3,3.4-4.5,1.2-6.4-0.2
				c-3.4-2.5-6.9-5-9.8-8.1c-1.8-1.9-4.1-5.2-3.7-7.2c0.8-3.3,0-5.9-0.7-8.7c-1.1-4.6-2.2-9.3-3.4-13.9c-0.8-3.1-1.7-6.1-2.6-9.1
				c-0.3,0.1-0.7,0.1-1,0.2c0.8,6.5,1.6,13,2.4,19.5c0.2,1.5-0.1,3-0.2,4.5c-0.3,0-0.5,0-0.8-0.1c-1.1-4.1-2.2-8.2-3.3-12.4
				c-8.3,51.5-0.1,100,27.3,144.4c27.5,44.4,66.9,73.7,116.1,90.1c2-3.7-0.4-4.2-2.3-5.3c-1-0.5-2.2-1.6-2.3-2.5
				c-0.2-1.9-3.2-3.1-1.3-5.4c-0.4-0.3-0.9-0.9-1.3-0.9c-1.9-0.2-2.8-1.3-3.2-3.1c-0.1-0.7-0.6-1.3-1-1.9c-2.6-3.9-6.2-7.3-5.9-12.5
				c0-0.5-0.6-1.1-0.8-1.6c-0.4-1.1-0.6-2.3-0.9-3.5c-0.6-2.1-1.2-4.2-2-6.2c-1.3-3-3.6-5.4-3.7-9.1c-0.1-4-1-8-2-11.9
				c-1.1-4.5-2.7-8.8-4.1-13.3c-1.1-3.5-1.6-7.3-5.9-8.5c-0.6-0.2-1-1.1-1.6-1.7c-2.3-2-3.8-5.4-7.6-4.9c-2.5,0.3-4.5-0.4-5.7-2.3
				c-3.3-5.4-6.2-11-9.4-16.4c-1.2-2.1-2.8-4-4.4-5.8c-1.1-1.2-2.7-1.9-3.6-3.2c-2.1-2.8-4.2-5.7-3-9.6c0.5-1.7,1.1-3.4,1.8-5.1
				c-1-0.2-1.9-0.4-2.8-0.5c-0.4-2.5-0.7-4.7-0.9-6.1c1-1.6,1.6-2.5,2-3.4c1.1-2.6,1.8-5.5,3.3-7.8c2.8-4.3,3.3-9.2,0.9-13.6
				C123.9,279.3,123.6,277.6,122.9,275.3z M357,174c4.4,2.7,8.4,1.5,12.3,1.5c0.4,0,0.9-0.6,1.1-1c0.7-2.1,2.4-2.4,4.3-2.4
				c0.7,0,1.5,0,2.1-0.3c2.6-1.7,5.1-1.9,7.8-0.4c0.5,0.3,1.4,0.1,2,0c4.1-0.4,8.4-2.5,12.4,0.9c-0.7,0.9-1.2,1.6-1.4,1.8
				c0.5,2.6,0.9,4.6,1.4,6.6c0.7,2.9,1.7,5.4,5,6.6c3.2,1.2,6.9,1.9,8.4,5.7c0.1,0.3,0.6,0.5,1,0.6c2.5,0.6,5.2,0.8,6.7,3.4
				c0.2,0.4,1.4,0.2,2.5,0.3c-0.5-3-0.9-5.7-1.3-8.4c0.3-0.2,0.5-0.4,0.8-0.6c3.5,1.7,7,3.3,10.5,5.2c3,1.6,5.7,4.1,9.5,2.1
				c0.3-0.2,0.9-0.1,1.2,0.1c3.2,1.9,3-0.4,2.8-2.3c-0.5-4.2-1.2-8.4-1.8-12.6c-0.5-3.1-0.5-3.1-3-2.4c-0.3,0.1-0.6-0.1-0.9-0.2
				c-1.1-0.8-2.3-1.7-3.4-2.6c-0.2-0.1-0.4-0.2-0.8-0.3c0.2,1,0.4,1.7,0.7,3.4c-1.6-0.8-2.6-1.4-3.6-1.9c-0.2,0.5-0.5,1.2-0.9,2.3
				c-3.7-10.9-8.2-18.3-10.8-19c-0.8,1.2-1.4,2.1-2,3c1.3,1,1.3,3.9,4.3,3c0.2,0,1.1,1.3,1,1.8c-0.6,2.2-1.4,4.3-2.4,7.2
				c-1.2-1.3-2-2.3-2.9-3.2c-0.6-0.6-1-1.4-1.7-1.8c-2.2-1.1-3.5-2.5-2.4-4.4c-1.1-1.8-1.9-3.1-2.7-4.5c-1.4-2.6-2.4-5.7-4.3-7.8
				c-2.6-2.8-5.9-4.9-8.9-7.3c-2.1-1.6-4.1-3.3-6.5-5.2c-0.1,1.7,0.1,1.6,2.7,5.4c3.2,4.7,7.9,7.7,12.3,10.9c2.2,1.6,3.2,3,2.2,5.8
				c-1.1,3-1.8,6.1-2.6,9.3c-2.8,0.2-6.5-2.2-6.9-4.4c2.2-0.4,4.3-0.9,7.2-1.5c-1.7-2.3-2.6-4.2-4.1-5.5c-3.8-3.5-8-6.6-11.8-10
				c-2.1-1.8-3.7-4.1-5.8-6.5c-1.7,1.4-3.2,2.7-5.4,4.6c-1.2-0.4-3.4-1-6.1-1.9c0.5,2.5,1,4.5,1.3,6.1c-2.3,1.5-5.6,2.5-6.3,4.4
				c-0.8,2.3,0.7,5.3,1.2,8C366.4,168.3,361,169.4,357,174z M363.7,76.3c-0.3,1-0.5,1.3-0.5,1.6c0.4,5.4,4.2,8.2,8.2,10.9
				c1.2,0.8,2.7,2.4,2.6,3.5c-0.1,3.2,0.8,5.3,3.8,6.5c0.3,0.1,0.5,1,0.5,1.5c0.1,1.8-1.9,4.1-3.9,4.7c-0.3,4.1,4.8,1.3,5.4,4.2
				c0,0.1,1.2-0.1,1.9-0.1c0.1,0,0.3,0,0.3-0.1c0.7-2.6,3.6-2,4.8-3.1c-1.3-2.9-2.6-5.5-3.8-8.2c0.2-0.1,0.4-0.3,0.6-0.4
				c1,0.6,1.9,1.1,2.9,1.7c0.2-0.2,0.3-0.5,0.5-0.7c-1.2-0.9-2.8-2.7-3.4-2.5c-3.5,1.7-3.2-1.3-4.3-2.9c1.1-0.7,2.1-1.4,3.9-2.6
				c-1.9-0.4-2.9-0.7-4-0.8c-0.8-0.2-1.9,0-2.5-0.4c-2.2-1.5-4.4-3-6.2-4.8C368.1,82,366.2,79.3,363.7,76.3z M448.6,209.1
				c2.4,9,4.7,18,7.3,27.7C455.8,226.5,453,217.5,448.6,209.1z"/>
			<path class="st1" d="M132.9,230.7c-3.2,0.3-6.1,0.6-9,0.9c-0.3,0-0.7,0-0.9-0.2c-2.7-1.9-5.5-3.7-8.1-5.8c-1.8-1.5-3.3-2-5.3-0.4
				c-1.9,1.5-4.3,1.1-5.5-0.9c-1.2-1.9-0.2-4.1,2-4.3c2.6-0.3,5.2-0.5,7.9-0.6c0.8,0,1.7,0.7,2.5,1.1c3.6,2,5.8,6.4,10.9,5.7
				C130.5,225.9,131.6,228.5,132.9,230.7z"/>
			<path class="st1" d="M206.3,132.5c-2.9-5.7-8.3-3.3-13.5-4c0.6-1.4,0.9-2.8,1.7-3.7c2.4-3,4.9-5.9,7.6-8.7
				c0.5-0.5,1.8-0.4,2.7-0.5c-0.1,0.9,0.1,1.9-0.3,2.6c-0.4,0.8-1.3,1.3-2,2c2.7,1.5,5.2,2.9,8.1,4.5
				C208.2,126.6,210.5,130.9,206.3,132.5z"/>
			<path class="st1" d="M305.2,71.1c-3.4,0.3-6,0.4-7.1,3.5c-0.2,0.4-2.6,0.1-4,0c-1.2-0.1-2.3-0.8-3.4-0.8c-2.3,0-4.4,0-4.6-2.8
				c-1.2-0.1-2.1-0.2-3-0.4c0-0.2,0-0.5-0.1-0.7c0.9-0.5,1.8-0.9,2.8-1.4c-1.4-0.3-2.7-0.6-4.3-0.9c1.7-2.1,5.3-2.5,6.9-1.2
				c0.5,0.4,1.2,0.8,1.8,0.6c2.5-0.5,4.9-1.1,7.3-1.7c0.5-0.1,1.2-0.3,1.5,0C301.1,67.1,302.9,68.9,305.2,71.1z"/>
			<path class="st1" d="M136.4,233.3c4-1.5,7.4-0.4,10.9,1.1c1.3,0.5,2.9,0.3,4.3,0.3c0.6,0,1.3-0.2,2-0.2c2.1,0,4.2,0,6.3,0
				c0.4,0.9,0.9,2,1.7,3.5c-1.3,0.1-2.4,0.3-3.6,0.4c-4.6,0.2-9.2,0.4-13.8,0.7c-0.5,0-1,0.6-1.6,0.7c-1.3,0.3-2.9,1.1-3.8,0.6
				c-1.1-0.6-1.9-2.1-2.3-3.4C136.1,236,136.4,234.7,136.4,233.3z"/>
			<path class="st1" d="M327.9,106.4c1.1-0.3,1.8-0.4,2.7-0.6c-0.2-0.9-0.3-1.6-0.5-2.4c2-1.6,7.8,0.7,8.3,3.3
				c0.6,2.8,1.1,5.5,1.7,8.1c-2.3,0.5-4.6,1.2-6.9,1.5c-0.8,0.1-2.4-0.9-2.4-1.1C331.6,111.8,329.1,109.5,327.9,106.4z"/>
			<path class="st1" d="M120.6,236.6c1.6,0.2,3.3,0.3,4.9,0.8c0.6,0.2,1.4,1.2,1.4,1.9c0,0.7-0.7,1.5-1.2,2.2
				c-0.6-0.5-1.2-0.9-1.8-1.4c-1.2-0.9-2.5-1.7-3.8-2.5C120.3,237.2,120.5,236.9,120.6,236.6z"/>
			<path class="st1" d="M186.4,121.6c-3,3.8-3.2,3.7-7.1-1.3c0.1-0.3,0.2-0.6,0.3-0.9C181.8,120.1,184,120.8,186.4,121.6z"/>
			<path class="st1" d="M186.5,58.7c0.4,3.3-0.6,4.1-5.1,3.9C181.9,60.2,182.6,59.7,186.5,58.7z"/>
			<path class="st1" d="M166.9,77.9c-1.5,1.5-2.6,3.7-5.4,2.5C162.7,77.3,163.7,76.9,166.9,77.9C166.9,77.9,166.9,77.9,166.9,77.9z"
				/>
		</g>
	</g>
</g>
<g id="Calque_1">
	<g>
		<g>
			<path class="st2" d="M198,204.9c1.1,0.9,2.3,1.7,3.4,2.6c-0.9,1.9-1.8,3.6-2.6,5.1c-0.8,1.5-1.8,3.2-3,5.3
				c-1.2,2.1-2.1,3.6-2.7,4.7c-5.2,9.1-10.1,13.6-14.7,13.6c-1.9,0-3.6-0.8-5-2.3c-1.4-1.5-2.1-3.6-2.1-6.2c0-3.7,1.3-8.9,4-15.4
				c2.7-6.5,6.8-14.5,12.4-24.1c5.6-9.5,12.6-20.3,21.1-32.4c8.5-12.1,18-24.8,28.6-38.2c-6.1-0.9-13.3-1.4-21.7-1.4
				c-9.6,0-20.4,1.1-32.2,3.2c-11.8,2.1-22.1,4.6-30.9,7.4c-8.8,2.8-13.2,4.9-13.2,6.2c0,0.5,0.2,0.8,0.5,1c0.3,0.2,0.9,0.3,1.7,0.4
				c0.8,0.1,1.8,0.2,3.1,0.4c8.1,1.1,12.2,2.4,12.2,3.7c0,0.7-1.8,1-5.3,1c-3.5,0-7.8-0.1-12.8-0.1c-4,0-6.8-0.2-8.6-0.5
				c-1.8-0.3-2.9-0.9-3.5-1.8c-0.6-0.9-0.9-2.2-0.9-4c0-1.2,0.3-3.7,1-7.7c1.3-7.3,3.3-13.2,6.1-17.7c2.7-4.4,6.9-8.1,12.6-10.9
				c5.6-2.8,13.4-5,23.3-6.7c16.6-2.8,30.4-4.3,41.3-4.3c8,0,14.4,0.3,19,1c4.6,0.7,8.1,1.6,10.2,2.9c2.2,1.2,3.6,2.5,4.2,3.7
				c0.6,1.2,1.4,3.3,2.3,6.3c1.1,3.2,2.1,6.4,3.2,9.6c0.2,0.6,0.4,1.1,0.5,1.5c0.1,0.4,0.3,0.8,0.4,1.2c0.1,0.4,0.2,0.8,0.2,1.1
				c0,2.7-0.6,5.1-1.8,7.3c-1.2,2.1-3.4,5.4-6.7,9.7c-3.2,4.3-5.6,7.7-7.1,10.1C216.8,169.5,204.6,190.9,198,204.9z"/>
			<path class="st2" d="M311.8,192.8c0,2.2,0,4.4,0,6.6c-6,6.2-11.2,11.2-15.6,15.1c-4.4,3.9-8.3,6.9-11.5,8.9c-3.3,2-6.1,3-8.4,3
				c-5.4,0-8.1-3.2-8.1-9.6c0-5.1,1.7-11.1,5-17.8c3.4-6.8,8.2-14.7,14.5-23.9c-3.1,1.7-6.1,3.7-8.8,6c-2.8,2.3-5.2,4.6-7.4,7.1
				c-2.1,2.5-4,4.6-5.4,6.3c-4.5,5.1-8.8,10.2-13,15.5c-4.2,5.3-7,8.8-8.4,10.3c-1.5,1.6-2.8,2.4-4.2,2.4c-5.4,0-8.1-6.7-8.1-20
				c0-4.4,0.7-9.2,2-14.5c1.3-5.3,4.9-12.2,10.6-20.9c12.1-18.2,22.5-33,31.1-44.6c8.6-11.5,15.8-20.3,21.5-26.2
				c5.7-5.9,9.5-8.8,11.4-8.7c2.4,0.2,4.4,0.7,5.9,1.5c1.5,0.8,2.2,1.6,2.2,2.6c0,1.7-1.2,4.6-3.6,8.6c-2.4,4-6.5,10.2-12.3,18.7
				c-6.3,8.9-10.8,15.2-13.4,18.9c-2.6,3.6-6.6,8.8-11.8,15.5c-5.2,6.7-10,12.7-14.3,17.9c-4.3,5.2-9.3,10.9-14.8,17
				c0,4.2,0,8.3,0,12.5c9.3-10.3,17.3-18.8,24.1-25.4c6.8-6.6,12.5-11.6,17.3-14.9c4.7-3.4,8.2-5,10.4-5c2.1,0,4,1.2,5.8,3.7
				c1.8,2.5,2.7,4.5,2.7,6.1c0,0.7-0.3,1.6-1,2.6c-5,6-9,10.9-11.9,14.8c-2.9,3.9-5.2,7.4-6.8,10.5c-1.6,3.1-2.4,5.7-2.4,8
				c0,3.3,1.6,4.9,4.7,4.9C293,206.2,300.4,201.8,311.8,192.8z"/>
			<path class="st2" d="M328.4,196.6c0,0.9,0,1.7,0,2.6c0,4.1,1,7.3,3,9.6c2,2.3,4.6,3.4,7.9,3.4c3.4,0,6.9-0.8,10.6-2.4
				c3.6-1.6,7.3-3.7,10.9-6.3c3.6-2.6,8-6.2,13.2-10.6c0,2.1,0,4.2,0,6.3c-7.8,9.4-15.2,16.7-22,21.7c-6.9,5-13.8,7.5-20.9,7.5
				c-6.2,0-11.1-2.4-14.7-7.2c-3.6-4.8-5.4-11.3-5.4-19.7c0-7.3,1.7-13.9,5.1-19.8c3.4-5.9,8.9-12.2,16.6-18.8
				c5.3-4.5,10.5-7.9,15.7-10.2c5.2-2.3,9.8-3.4,13.9-3.4c3.3,0,5.8,0.7,7.7,2.2c1.9,1.5,2.9,3.7,2.9,6.7c0,4.4-1.6,8.7-4.9,13
				c-3.3,4.3-8.2,8.6-14.9,12.9C346.4,188.5,338.2,192.6,328.4,196.6z M329.5,189.8c6.2-2.4,11.6-5.4,16-9c4.4-3.6,7.7-7.1,9.8-10.3
				c2.1-3.3,3.2-5.7,3.2-7.2c0-1.6-0.7-2.4-2.2-2.4c-1.2,0-3.3,0.8-6.1,2.4c-2.8,1.6-5.7,3.7-8.5,6.2c-2.9,2.6-5.5,5.6-7.7,9
				C331.7,181.9,330.2,185.7,329.5,189.8z"/>
			<path class="st2" d="M192.4,343.1c-1.7-3.2-4.3-6.1-7.8-8.6c-3.5-2.6-7.4-4.6-11.7-6.2c-4.3-1.6-8.9-2.7-13.6-3.5
				c-14-2.1-27.1-6.6-39.2-13.6c-1-0.6-2.1-1.7-3.3-3.5c-1.2-1.8-1.8-3.5-1.8-5.2c0-6.1,1-12.2,3.1-18.4c2-6.1,4.7-10.9,7.9-14.4
				c5.1-5.8,14.4-10.8,27.7-15.1c13.3-4.3,28.4-6.4,45.1-6.4c10,0,17.7,0.8,23.1,2.3c5.4,1.5,8.2,3.9,8.2,7.1
				c0,5.2-0.7,9.2-2.1,12.1c-1.4,2.8-2.9,4.7-4.6,5.7c-1.6,0.9-4.5,2.2-8.6,3.8c-4.4,1.5-8.2,3.1-11.4,4.8c-3.2,1.7-6,3.3-8.3,4.8
				c-2.3,1.5-3.7,2.3-4.3,2.3c-0.7,0-1-0.3-1-0.8c0-1.2,1.2-3,3.7-5.4c2.5-2.4,5.5-4.5,9.1-6.3c3.8-2,5.7-3.3,5.7-3.8
				c0-0.9-2.1-1.4-6.3-1.4c-12.8,0-24.7,1.1-35.6,3.4c-10.9,2.3-19.5,5.3-25.7,9c-6.3,3.7-9.4,7.6-9.4,11.4c0,2.4,1.3,4.1,3.9,5.1
				c2.6,1,8.3,2.7,17.2,5c8.9,2.4,16.8,5.1,23.8,8.1c10.1,4.3,17.5,8.8,22.4,13.4c4.9,4.6,7.3,9.8,7.3,15.6c0,4-1,7.9-2.9,11.9
				c-1.9,4-4.7,7.6-8.4,11c-3.7,3.3-7.9,6.1-12.7,8.2c-4.1,1.7-9.2,3.4-15.4,4.9c-6.2,1.5-12.9,2.7-20.2,3.6
				c-7.2,0.9-14.2,1.3-20.7,1.3c-12.1,0-21.9-1.1-29.3-3.4c-7.4-2.3-11.1-5.8-11.1-10.4c0-2.1,1.2-5.3,3.7-9.7
				c2.5-4.4,5.4-7.4,8.8-8.9c3-1.2,5.9-1.9,8.6-2c2.8-0.2,4.2,0.2,4.2,1c0,0.2-0.1,0.4-0.3,0.6c-0.2,0.2-0.5,0.4-0.7,0.5
				c-0.3,0.1-0.6,0.3-0.8,0.4c-1.4,0.6-2.5,1-3.4,1.3c-0.9,0.3-1.6,0.6-2.1,0.9c-0.5,0.3-0.8,0.7-0.8,1.3c0,1.5,7.2,2.2,21.5,2.2
				c12.5,0,22.7-0.5,30.7-1.4c8-0.9,15-2.5,21.1-4.9C181.9,350.5,187.4,347.3,192.4,343.1z"/>
			<path class="st2" d="M208.8,349.1c0-2.4,0-4.9,0-7.3c9.7-10.5,18.1-20.4,25.1-29.7c7-9.3,12.6-16.7,16.7-22.1
				c4.1-5.5,7.7-9.3,10.8-11.6c3.1-2.3,7-3.4,11.8-3.4c2.4,0,3.5,0.9,3.5,2.7c0,1.5-1,3.6-2.9,6.4c-1.9,2.8-4.4,5.8-7.3,8.7
				c-4,3.9-7.8,8.8-11.6,14.6c-3.8,5.9-8.1,13.3-12.8,22.4c3.7-2.9,8.1-6.4,12.9-10.3c4.9-4,8.9-7.1,12-9.4c3.1-2.3,6.1-4,9.2-5.4
				c3-1.3,6-2,9.1-2c1.9,0,3.2,0.3,3.8,1c0.6,0.7,0.9,2,0.9,4.1c0,5.3-1.3,10.4-3.8,15.4c-2.6,5-6.2,10.2-11,15.6
				c-4.8,5.4-10.7,11.3-17.7,17.7c2.4,0.9,4.9,1.4,7.5,1.4c8,0,18.8-6.1,32.3-18.4c0,2.5,0,5,0,7.5c-5.3,4.7-10.4,9.2-15.4,13.3
				c-5,4.2-9.8,7.5-14.2,10c-4.4,2.5-8.5,3.7-12.3,3.7c-1.4,0-2.9-0.2-4.4-0.5c-1.6-0.3-3-0.7-4.3-1.1c-1.3-0.5-3-1.1-5.1-1.9
				c-2.1-0.8-3.7-1.4-4.8-1.8c-2.2,0.6-3.5,0.8-3.7,0.8c-2.4,0-5.3-1-8.5-2.9c-2.3,4.4-4.8,10.2-7.5,17.2c-2.7,7-5,12.6-6.9,16.8
				c-1.9,4.2-4.4,8.1-7.5,12c-1.7,1.7-2.9,2.6-3.6,2.6c-3,0-4.5-2.6-4.5-7.9c0-4.6,0.9-9.3,2.8-14.3c1.8-5,4.1-9.7,6.8-14.1
				c2.7-4.4,5.6-8.9,8.8-13.5c3.2-4.5,5.4-7.9,6.8-10.1c11-18.9,19.5-34.9,25.6-48.1C229,326.7,216.9,340.7,208.8,349.1z M251,354.2
				c6.9-7.2,12-13.3,15.3-18.4c3.4-5.1,5-8.9,5-11.6c0-2.6-1.3-3.8-3.8-3.8c-3.5,0-8.3,2.9-14.6,8.6c-6.3,5.7-12.7,13.4-19.4,23.1
				c5.1-0.6,8.6-0.7,10.3-0.6C245.5,351.6,247.9,352.6,251,354.2z"/>
			<path class="st2" d="M350.9,340.2c0,2.3,0,4.6,0,7c-4.6,4.2-8.3,6.9-11,8.3c-2.8,1.4-6.8,1.9-12,1.7c-9,10.7-17,16-23.8,16
				c-3.9,0-7.4-1.3-10.6-3.8c-3.2-2.6-5.7-6.1-7.6-10.5c-1.9-4.4-2.9-9.4-2.9-14.9c0-4.4,1.5-9.4,4.4-14.8
				c2.9-5.4,6.8-10.5,11.4-15.1c4.7-4.7,9.7-8.5,15-11.3c5.3-2.9,10.3-4.3,14.9-4.3c3.3,0,5.8,0.5,7.7,1.5c1.9,1,2.8,2.4,2.8,4.2
				c0,1.4-0.8,3-2.4,4.8c2.6,0.6,4.4,1.5,5.4,2.8c1,1.3,1.5,3.6,1.5,7c0,3.3-0.8,7.5-2.3,12.6c-1.6,5.1-3.7,9.8-6.4,14.2
				c0.6,0.6,1.2,1.2,1.9,1.9c0.5,0,1,0,1.6,0c1.2,0,2.3-0.3,3.5-0.9c1.1-0.6,2.2-1.2,3.1-1.9C345.9,344,347.9,342.5,350.9,340.2z
				 M329.5,312.8c-5.8,3.5-10.7,6.6-14.8,9.4c-4.1,2.8-7.6,5.7-10.4,8.5c-2.8,2.9-4.7,5.8-5.7,8.7c-1.7,7.8-2.6,12-2.6,12.6
				c0,4.6,3.2,6.9,9.6,6.9c3,0,8-2.6,15-7.7c-1.2-3.3-1.8-6.4-1.8-9.4c0-4.4,0.9-8.8,2.7-13.4C323.3,324,326,318.7,329.5,312.8z"/>
			<path class="st2" d="M387.2,286.4c1.5,0,3,0,4.5,0c3.7-6.6,7-11.2,10-14c3-2.7,6.4-4.1,10.2-4.1c3.8,0,5.7,0.9,5.7,2.6
				c0,0.8-1.5,3.1-4.5,6.8c-3,3.7-5.2,6.8-6.8,9.3c2.4,0.3,4.5,0.5,6.3,0.7c1.8,0.2,3.3,0.4,4.3,0.5c-4,7.3-8.9,14.9-14.9,22.6
				c-1.9-0.1-3.6-0.3-4.9-0.4c-1.3-0.1-2.7-0.2-4-0.3c-1.4-0.1-3-0.2-4.9-0.4c-3.7,6-6.9,11.4-9.4,16.2c-2.5,4.8-4.5,9.1-5.8,13.1
				c-1.4,4-2,7.7-2,11.2c0,4.8,1.9,7.2,5.7,7.2c2.6,0,6.1-1.4,10.3-4.2c4.3-2.8,10-7.1,17.1-12.9c0,2.3,0,4.6,0,7
				c-18.7,20.3-32.5,30.5-41.5,30.5c-3.1,0-5.6-1.2-7.5-3.6c-1.9-2.4-2.9-5.5-2.9-9.4c0-2.6,0.5-5.6,1.6-9.2c1.1-3.5,3-8.9,5.8-16
				c-1,0.8-1.9,1.6-2.8,2.4c-0.9,0.8-1.7,1.5-2.4,2.2c-0.7,0.7-1.5,1.4-2.3,2.1c-0.8,0.7-1.7,1.5-2.5,2.2c0-2.4,0-4.8,0-7.2
				c7.3-6.1,16.1-16.8,26.4-32.1c-1-0.1-2-0.1-2.9-0.2c-0.9,0-2-0.1-3.2-0.1c-4.1,0-7.1,0.3-9.2,0.8c-0.8,0.2-1.6,0.4-2.3,0.7
				c-0.7,0.2-1.2,0.4-1.5,0.4c-0.3,0-0.4-0.2-0.4-0.6c0-2.3,1.4-5.7,4.3-10.3c2.3-3.9,4.5-6.8,6.5-8.6c2-1.9,4.5-3.1,7.5-3.8
				C377.7,286.8,381.9,286.4,387.2,286.4z"/>
		</g>
	</g>
</g>
</svg>
